<?xml version="1.0" encoding="utf-8"?>
<svg fill="#000000" width="800px" height="800px" viewBox="0 0 256 256" id="Flat" xmlns="http://www.w3.org/2000/svg" xmlns:bx="https://boxy-svg.com"><defs><bx:export><bx:file format="svg" path="Bird.svg"/></bx:export></defs><path d="M 163.846 48.044 C 163.846 56.281 154.051 61.429 146.215 57.311 C 138.379 53.192 138.379 42.896 146.215 38.778 C 148.002 37.839 150.029 37.344 152.092 37.344 C 158.584 37.344 163.846 42.135 163.846 48.044 Z M 213.802 53.394 C 213.802 56.077 212.329 58.583 209.876 60.071 L 196.171 68.389 L 196.171 80.144 C 196.121 120.015 160.628 152.325 116.829 152.37 L 43.366 152.37 C 36.579 152.37 32.338 145.682 35.731 140.332 C 35.923 140.03 36.136 139.739 36.369 139.462 L 102.137 61.372 L 102.137 50.719 C 102.142 17.766 141.333 -2.823 172.68 13.658 C 182.524 18.833 189.975 27.08 193.655 36.872 L 209.876 46.717 C 212.329 48.205 213.802 50.711 213.802 53.394 Z M 189.094 53.394 L 181.24 48.627 C 179.439 47.534 178.142 45.876 177.598 43.968 C 171.885 24.04 144.615 17.214 128.513 31.682 C 122.919 36.708 119.77 43.565 119.768 50.719 L 119.768 64.094 C 119.768 65.86 119.129 67.576 117.949 68.977 L 61.233 136.32 L 116.829 136.32 C 150.895 136.284 178.501 111.154 178.539 80.144 L 178.539 64.094 C 178.539 61.411 180.012 58.905 182.465 57.417 L 189.094 53.394 Z M 129.049 84.476 C 125.185 81.779 119.652 82.444 116.69 85.962 L 94.161 112.712 C 90.029 117.612 93.273 124.747 100.001 125.555 C 103.128 125.93 106.237 124.756 108.154 122.477 L 130.682 95.727 C 133.644 92.209 132.913 87.172 129.049 84.476 Z" style=""/><text style="fill: rgb(51, 51, 51); font-family: Arial, sans-serif; font-size: 28px; white-space: pre;" transform="matrix(1.961584, 0, 0, 1.330435, -10.878295, -54.295503)"><tspan x="39.039" y="197.849">B</tspan><tspan style="text-decoration: underline solid rgba(0, 0, 0, 0.8);">ir</tspan><tspan>d</tspan></text></svg>