<?xml version="1.0" encoding="utf-8"?>
<svg width="800px" height="800px" viewBox="0 0 24 24" fill="none" xmlns="http://www.w3.org/2000/svg" xmlns:bx="https://boxy-svg.com"><defs><bx:export><bx:file format="svg" path="book.svg"/></bx:export></defs><rect width="19.69" height="17.675" fill="white" style="" x="2" y="-1"/><path d="M 11.845 4.088 C 10.942 3.057 9.551 2.026 6.103 1.95 C 5.877 1.945 5.692 2.11 5.692 2.314 C 5.692 3.822 5.692 9.534 5.692 11.223 C 5.692 11.426 5.877 11.586 6.103 11.593 C 9.551 11.694 10.942 13.066 11.845 14.097 M 11.845 4.088 C 12.747 3.057 14.139 2.026 17.587 1.95 C 17.813 1.945 17.998 2.107 17.998 2.31 C 17.998 3.996 17.998 9.536 17.998 11.222 C 17.998 11.426 17.813 11.586 17.587 11.593 C 14.139 11.694 12.747 13.066 11.845 14.097 M 11.845 4.088 L 11.845 14.097" stroke="#000000" stroke-linejoin="round" style=""/><path d="M 17.781 3.419 L 19.639 3.419 C 19.865 3.419 20.049 3.584 20.049 3.787 L 20.049 13.39 C 20.049 13.687 19.658 13.885 19.354 13.764 C 18.702 13.504 17.614 13.186 16.188 13.186 C 13.775 13.186 11.845 14.465 11.845 14.465 C 11.845 14.465 9.914 13.186 7.502 13.186 C 6.076 13.186 4.988 13.504 4.335 13.764 C 4.032 13.885 3.641 13.687 3.641 13.39 L 3.641 3.787 C 3.641 3.584 3.824 3.419 4.051 3.419 L 5.909 3.419" stroke="#000000" stroke-linejoin="round" style=""/><text style="fill: rgb(51, 51, 51); font-family: Arial, sans-serif; font-size: 28px; white-space: pre;" transform="matrix(0.227104, 0, 0, 0.301458, 2.770182, 15.760617)"><tspan x="8.864" y="17.792">B</tspan><tspan style="text-decoration: underline solid rgba(0, 0, 0, 0.8);">oo</tspan><tspan>k</tspan></text></svg>