<?xml version="1.0" encoding="utf-8"?>
<svg width="800px" height="800px" viewBox="-0.383 -0.332 24 24" fill="none" xmlns="http://www.w3.org/2000/svg" xmlns:bx="https://boxy-svg.com"><defs><bx:export><bx:file format="svg" path="Boy.svg"/></bx:export></defs><g transform="matrix(1, 0, 0, 1, 2.984059, -0.229543)"><circle cx="12.5" cy="2.5" r="1.75" fill="#000000" stroke="#000000" stroke-width="1.5" style="" transform="matrix(0.642932, 0, 0, 0.65022, -0.395323, 0.28784)"/></g><path d="M 8.328 9.979 L 8.328 4.27 L 9.298 4.27 L 10.754 4.27 L 12.308 4.27 L 13.103 4.27 L 13.103 9.979 L 12.308 9.979 L 11.511 9.979 L 11.512 15.056 L 9.919 15.056 L 9.919 9.979 L 9.298 9.979 L 8.328 9.979 Z" fill="#000000" style=""/><path d="M 9.654 10.062 L 9.067 10.062 L 8.148 10.062 L 8.148 4.501 L 9.067 4.501 L 10.445 4.501 L 11.915 4.501 L 12.668 4.501 L 12.668 10.062 L 11.915 10.062 L 11.162 10.062 M 9.654 10.062 L 9.654 15.006 L 11.163 15.006 L 11.162 10.062 M 9.654 10.062 L 11.162 10.062" stroke="#000000" stroke-width="1.5" stroke-linecap="round" stroke-linejoin="round" style=""/><text style="fill: rgb(51, 51, 51); font-family: Arial, sans-serif; font-size: 28px; white-space: pre;" transform="matrix(0.201654, 0, 0, 0.256062, 4.240059, 17.077765)"><tspan x="5.343" y="15.871">B</tspan><tspan style="text-decoration: underline solid rgba(0, 0, 0, 0.8);">oy</tspan></text></svg>