<?xml version="1.0" encoding="utf-8"?>
<svg fill="#000000" height="800px" width="800px" version="1.1" id="Deer" xmlns="http://www.w3.org/2000/svg" viewBox="0 0 128 128" xmlns:bx="https://boxy-svg.com"><defs><bx:export><bx:file format="svg" path="deer.svg"/></bx:export></defs><path id="_x32__16_" d="M 95.736 41.211 L 57.791 41.211 L 50.581 30.638 L 48.873 34.591 L 48.399 37.533 C 48.114 39.28 46.691 40.66 45.079 40.66 L 40.146 40.66 C 39.672 40.66 39.197 40.568 38.818 40.384 C 38.818 46.083 38.818 52.611 38.818 52.703 L 29.141 62.171 C 28.478 62.815 28.193 63.642 28.193 64.47 C 28.193 65.297 28.478 66.124 29.141 66.768 L 36.542 73.938 C 37.869 75.226 39.956 75.226 41.189 73.938 C 42.517 72.651 42.517 70.629 41.189 69.434 L 36.161 64.562 L 41.474 59.413 C 42.802 60.885 44.51 62.079 46.407 62.723 L 46.407 89.567 C 46.407 91.314 47.925 92.784 49.727 92.784 C 51.529 92.784 53.047 91.314 53.047 89.567 L 53.047 63.275 L 68.795 63.275 L 77.807 72.008 L 68.415 87.821 C 67.467 89.383 68.036 91.314 69.649 92.234 C 71.261 93.152 73.253 92.6 74.203 91.038 L 83.973 74.674 C 84.258 74.214 84.352 73.663 84.447 73.111 L 84.447 63.642 L 92.985 71.916 L 92.985 89.475 C 92.985 91.222 94.503 92.692 96.305 92.692 C 98.107 92.692 99.625 91.222 99.625 89.475 L 99.625 48.566 C 101.713 48.566 103.42 46.91 103.42 44.888 L 103.42 33.856 L 95.736 41.211 Z" style=""/><path id="_x31__4_" d="M 59.689 6.277 C 59.689 5.266 58.834 4.438 57.791 4.438 C 56.747 4.438 55.894 5.266 55.894 6.277 C 55.894 9.035 55.04 11.609 53.427 13.814 C 51.909 11.609 51.056 9.035 51.056 6.368 C 51.056 5.358 50.202 4.53 49.158 4.53 C 48.114 4.53 47.261 5.358 47.261 6.368 C 47.261 10.137 48.495 13.724 50.866 16.573 C 48.589 18.411 45.648 19.423 42.517 19.515 C 39.387 19.423 36.542 18.319 34.265 16.573 C 36.636 13.632 37.869 10.045 37.869 6.277 C 37.869 5.266 37.015 4.438 35.972 4.438 C 34.929 4.438 34.075 5.266 34.075 6.277 C 34.075 8.943 33.221 11.609 31.704 13.724 C 30.186 11.609 29.332 9.035 29.332 6.277 C 29.332 5.266 28.478 4.438 27.434 4.438 C 26.391 4.438 25.537 5.266 25.537 6.277 C 25.537 11.609 28.098 16.389 32.177 19.423 L 27.434 19.423 C 27.434 22.088 29.711 24.295 32.463 24.295 L 33.885 24.295 L 38.154 34.04 L 38.628 37.258 C 38.723 38.085 39.387 38.82 40.051 38.82 L 44.984 38.82 C 45.648 38.82 46.312 38.177 46.407 37.258 L 46.882 34.04 L 51.15 24.295 L 52.574 24.295 C 55.324 24.295 57.601 22.088 57.601 19.423 L 52.858 19.423 C 57.126 16.389 59.689 11.609 59.689 6.277 Z" style=""/><text style="fill: rgb(51, 51, 51); font-family: Arial, sans-serif; font-size: 28px; white-space: pre;"><tspan x="32.034" y="116.879" style="text-decoration: underline solid rgba(0, 0, 0, 0.8);">Dee</tspan><tspan>r</tspan></text></svg>