<?xml version="1.0" encoding="utf-8"?>
<svg height="800px" width="800px" version="1.1" id="_x32_" xmlns="http://www.w3.org/2000/svg" viewBox="0 0 512 512" xmlns:bx="https://boxy-svg.com"><defs><bx:export><bx:file format="svg" path="girl.svg"/></bx:export></defs><style type="text/css">
	.st0{fill:#000000;}
</style><g style="" transform="matrix(0.962727, 0, 0, 0.731138, 5.18915, 4.35277)"><path class="st0" d="M256.002,96.898c26.756,0,48.448-21.703,48.448-48.431C304.45,21.675,282.757,0,256.002,0 c-26.774,0-48.45,21.675-48.45,48.467C207.552,75.195,229.227,96.898,256.002,96.898z"/><path class="st0" d="M371.412,378.74l-50.204-118.046l16.704-84.265c1.737-31.99-22.329-55.974-45.804-55.974h-72.224 c-23.466,0-47.531,23.984-45.804,55.974l16.713,84.265L140.581,378.74c-2.245,5.29-1.69,11.37,1.482,16.168 c3.172,4.798,8.543,7.689,14.305,7.689h52.921l13.687,92.918c0,9.097,7.388,16.486,16.494,16.486c3.299,0,29.755,0,33.054,0 c9.115,0,16.494-7.389,16.494-16.486l13.687-92.918h52.921c5.762,0,11.133-2.891,14.305-7.689 C373.112,390.109,373.666,384.029,371.412,378.74z"/></g><text style="fill: rgb(51, 51, 51); font-family: Arial, sans-serif; font-size: 28px; white-space: pre;" transform="matrix(4.923468, 0, 0, 3.189655, -362.22318, -917.887282)"><tspan x="101.475" y="434.329" style="text-decoration: underline solid rgba(0, 0, 0, 0.8);">G</tspan><tspan>irl</tspan></text></svg>