<?xml version="1.0" encoding="utf-8"?>
<svg width="800px" height="800px" viewBox="0 0 24 24" fill="none" xmlns="http://www.w3.org/2000/svg" xmlns:bx="https://boxy-svg.com"><defs><bx:export><bx:file format="svg" path="key.svg"/></bx:export></defs><path d="M 13.633 10.883 C 16.198 10.883 18.277 8.78 18.277 6.186 C 18.277 3.593 16.198 1.49 13.633 1.49 C 11.069 1.49 8.99 3.593 8.99 6.186 C 8.99 7.387 9.53 8.261 9.53 8.261 L 3.915 13.941 C 3.663 14.195 3.311 14.858 3.915 15.47 L 4.564 16.125 C 4.816 16.344 5.449 16.65 5.967 16.125 L 6.723 15.361 C 7.479 16.125 8.342 15.689 8.666 15.251 C 9.206 14.487 8.558 13.722 8.558 13.722 L 8.774 13.504 C 9.811 14.552 10.718 13.941 11.042 13.504 C 11.582 12.739 11.042 11.975 11.042 11.975 C 10.826 11.538 10.395 11.538 10.934 10.992 L 11.582 10.337 C 12.1 10.773 13.165 10.883 13.633 10.883 Z" stroke="#1C274C" stroke-width="1.5" stroke-linejoin="round" style=""/><path opacity="0.5" d="M 15.028 6.062 C 15.028 6.746 14.487 7.301 13.818 7.301 C 13.15 7.301 12.609 6.746 12.609 6.062 C 12.609 5.378 13.15 4.823 13.818 4.823 C 14.487 4.823 15.028 5.378 15.028 6.062 Z" stroke="#1C274C" stroke-width="1.5" style=""/><text style="fill: rgb(51, 51, 51); font-family: Arial, sans-serif; font-size: 28px; white-space: pre;" transform="matrix(0.19122, 0, 0, 0.242401, 5.579705, 17.761591)"><tspan x="7.435" y="16.074" style="text-decoration: underline solid rgba(0, 0, 0, 0.8);">K</tspan><tspan>ey</tspan></text></svg>