<?xml version="1.0" encoding="utf-8"?>
<svg fill="#000000" width="800px" height="800px" viewBox="0 0 50 50" xmlns="http://www.w3.org/2000/svg" xmlns:bx="https://boxy-svg.com"><defs><bx:export><bx:file format="svg" path="lamp.svg"/></bx:export></defs><path d="M 15.122 0.903 L 14.936 1.364 L 8.991 16.841 L 8.619 17.788 L 21.159 17.788 C 20.57 18.361 20.09 19.153 20.09 20.183 C 20.09 22.322 20.94 23.658 21.669 24.998 C 22.331 26.215 22.933 27.504 23.04 29.747 L 19.348 29.747 C 18.535 29.747 17.861 30.384 17.861 31.154 L 17.861 31.857 L 15.632 31.857 C 14.819 31.857 14.146 32.495 14.146 33.265 L 14.146 36.078 L 36.438 36.078 L 36.438 33.265 C 36.438 32.495 35.764 31.857 34.951 31.857 L 32.722 31.857 L 32.722 31.154 C 32.722 30.384 32.049 29.747 31.237 29.747 L 27.545 29.747 C 27.652 27.504 28.252 26.215 28.914 24.998 C 29.643 23.658 30.493 22.322 30.493 20.183 C 30.493 19.153 30.014 18.361 29.425 17.788 L 41.964 17.788 L 41.593 16.841 L 35.649 1.364 L 35.463 0.903 L 15.122 0.903 Z M 16.143 2.31 L 34.441 2.31 L 39.828 16.38 L 23.991 16.38 C 23.913 16.37 23.837 16.37 23.76 16.38 L 10.756 16.38 L 16.143 2.31 Z M 23.945 17.788 L 26.639 17.788 C 26.737 17.815 27.271 17.96 27.846 18.337 C 28.476 18.749 29.007 19.304 29.007 20.183 C 29.007 21.986 28.372 22.967 27.614 24.361 C 26.92 25.639 26.177 27.229 26.058 29.747 L 24.525 29.747 C 24.407 27.229 23.664 25.639 22.97 24.361 C 22.213 22.967 21.577 21.986 21.577 20.183 C 21.577 19.304 22.108 18.749 22.738 18.337 C 23.312 17.96 23.846 17.815 23.945 17.788 Z M 19.348 31.154 L 31.237 31.154 L 31.237 31.857 L 19.348 31.857 L 19.348 31.154 Z M 15.632 33.265 L 34.951 33.265 L 34.951 34.671 L 15.632 34.671 L 15.632 33.265 Z" style=""/><text style="fill: rgb(51, 51, 51); font-family: Arial, sans-serif; font-size: 28px; white-space: pre;" transform="matrix(0.440127, 0, 0, 0.516104, 7.24441, 22.620707)"><tspan x="6.296" y="44.859" style="text-decoration: underline solid rgba(0, 0, 0, 0.8);">L</tspan><tspan>amp</tspan></text></svg>