<?xml version="1.0" encoding="utf-8"?>
<svg width="800px" height="800px" viewBox="0 0 24 24" fill="none" xmlns="http://www.w3.org/2000/svg" xmlns:bx="https://boxy-svg.com"><defs><bx:export><bx:file format="svg" path="lock.svg"/></bx:export></defs><path d="M 11.057 10.274 L 11.057 11.832 M 6.806 6.791 C 7.206 6.768 7.7 6.768 8.336 6.768 L 13.777 6.768 C 14.412 6.768 14.906 6.768 15.307 6.791 M 6.806 6.791 C 6.305 6.819 5.951 6.883 5.648 7.024 C 5.168 7.248 4.778 7.605 4.532 8.045 C 4.255 8.545 4.255 9.199 4.255 10.508 L 4.255 11.598 C 4.255 12.907 4.255 13.561 4.532 14.061 C 4.778 14.501 5.168 14.859 5.648 15.083 C 6.193 15.337 6.907 15.337 8.336 15.337 L 13.777 15.337 C 15.205 15.337 15.919 15.337 16.465 15.083 C 16.945 14.859 17.335 14.501 17.58 14.061 C 17.857 13.561 17.857 12.907 17.857 11.598 L 17.857 10.508 C 17.857 9.199 17.857 8.545 17.58 8.045 C 17.335 7.605 16.945 7.248 16.465 7.024 C 16.162 6.883 15.807 6.819 15.307 6.791 M 6.806 6.791 L 6.806 5.211 C 6.806 3.06 8.709 1.316 11.057 1.316 C 13.404 1.316 15.307 3.06 15.307 5.211 L 15.307 6.791" stroke="#000000" stroke-width="2" stroke-linecap="round" stroke-linejoin="round" style=""/><text style="fill: rgb(51, 51, 51); font-family: Arial, sans-serif; font-size: 28px; white-space: pre; transform-box: fill-box; transform-origin: 29.6289px 15.638px;" transform="matrix(0.123582, 0.002835, -0.005489, 0.239292, -24.126122, 17.061722)"><tspan x="5.93" y="11.815">L</tspan><tspan style="text-decoration: underline solid rgba(0, 0, 0, 0.8);">o</tspan><tspan>ck</tspan></text></svg>