<?xml version="1.0" encoding="utf-8"?>
<svg width="800px" height="800px" viewBox="0 0 24 24" fill="none" xmlns="http://www.w3.org/2000/svg" xmlns:bx="https://boxy-svg.com"><defs><bx:export><bx:file format="svg" path="nut.svg"/></bx:export></defs><path fill-rule="evenodd" clip-rule="evenodd" d="M 8.038 2.512 C 6.505 3.326 5.939 4.997 6.878 6.491 C 7.154 6.93 7.531 7.186 8.076 7.554 C 8.607 7.912 9.268 8.361 9.77 9.161 C 10.273 9.961 10.365 10.71 10.437 11.312 C 10.511 11.929 10.564 12.358 10.84 12.797 C 11.779 14.291 13.638 14.676 15.171 13.863 C 16.704 13.05 17.27 11.378 16.331 9.884 C 16.055 9.445 15.678 9.189 15.133 8.821 C 14.602 8.463 13.941 8.015 13.439 7.215 C 12.936 6.415 12.843 5.665 12.771 5.063 C 12.697 4.446 12.644 4.018 12.368 3.579 C 11.43 2.085 9.571 1.699 8.038 2.512 Z M 5.505 7.219 C 4.11 4.998 4.988 2.449 7.246 1.251 C 9.503 0.054 12.346 0.63 13.741 2.85 C 14.188 3.561 14.271 4.263 14.338 4.827 L 14.347 4.904 C 14.418 5.496 14.489 5.974 14.811 6.487 C 15.134 6.999 15.548 7.295 16.071 7.647 L 16.139 7.693 C 16.637 8.028 17.257 8.445 17.704 9.156 C 19.099 11.377 18.221 13.927 15.963 15.124 C 13.706 16.322 10.863 15.746 9.468 13.525 C 9.021 12.814 8.938 12.113 8.871 11.548 L 8.862 11.471 C 8.791 10.879 8.72 10.402 8.398 9.889 C 8.075 9.376 7.661 9.081 7.138 8.728 L 7.07 8.682 C 6.572 8.347 5.952 7.93 5.505 7.219 Z M 9.227 6.003 C 9.227 6.405 8.872 6.731 8.434 6.731 C 7.997 6.731 7.642 6.405 7.642 6.003 C 7.642 5.601 7.997 5.275 8.434 5.275 C 8.872 5.275 9.227 5.601 9.227 6.003 Z M 8.434 4.547 C 8.872 4.547 9.227 4.221 9.227 3.819 C 9.227 3.417 8.872 3.091 8.434 3.091 C 7.997 3.091 7.642 3.417 7.642 3.819 C 7.642 4.221 7.997 4.547 8.434 4.547 Z M 11.604 6.731 C 11.604 7.134 11.25 7.46 10.812 7.46 C 10.374 7.46 10.019 7.134 10.019 6.731 C 10.019 6.329 10.374 6.003 10.812 6.003 C 11.25 6.003 11.604 6.329 11.604 6.731 Z M 13.189 13.285 C 13.627 13.285 13.982 12.959 13.982 12.556 C 13.982 12.154 13.627 11.828 13.189 11.828 C 12.752 11.828 12.397 12.154 12.397 12.556 C 12.397 12.959 12.752 13.285 13.189 13.285 Z" fill="#000000" style=""/><text style="fill: rgb(51, 51, 51); font-family: Arial, sans-serif; font-size: 28px; white-space: pre;" transform="matrix(0.259849, 0, 0, 0.188103, 4.540071, 18.176316)"><tspan x="4.859" y="14.315">N</tspan><tspan style="text-decoration: underline solid rgba(0, 0, 0, 0.8);">u</tspan><tspan>t</tspan></text></svg>