<?xml version="1.0" encoding="utf-8"?>
<svg width="800px" height="800px" viewBox="0 0 64 64" xmlns="http://www.w3.org/2000/svg" aria-hidden="true" role="img" class="iconify iconify--emojione-monotone" preserveAspectRatio="xMidYMid meet" xmlns:bx="https://boxy-svg.com"><defs><bx:export><bx:file format="svg" path="pig.svg"/></bx:export></defs><path d="M 55.141 8.352 L 55.087 7.681 L 54.433 7.603 C 54.328 7.591 51.834 7.297 48.867 7.297 C 44.934 7.297 42.126 7.81 40.503 8.822 C 39.799 8.367 39.073 7.949 38.327 7.569 C 36.71 2.437 30.872 1 30.872 1 C 31.517 2.389 31.27 5.15 31.27 5.15 C 29.482 2.492 25.879 3.294 25.879 3.294 C 27.535 4.432 27.42 6.018 27.42 6.018 C 25.578 5.286 23.07 6.796 23.07 6.796 C 23.536 6.935 23.987 7.122 24.415 7.353 C 23.461 7.815 22.537 8.339 21.651 8.921 C 19.881 7.781 16.664 7.203 12.073 7.203 C 9.817 7.203 8.112 7.349 8.041 7.355 L 7.385 7.413 L 7.309 8.083 C 7.155 9.466 5.909 21.651 9.839 23.863 C 10.009 23.957 10.196 24.025 10.396 24.065 C 9.804 26.165 9.504 28.336 9.502 30.519 C 9.501 45.906 20.446 47.982 31.152 47.982 C 41.858 47.982 52.803 45.906 52.803 30.518 C 52.803 28.296 52.49 26.087 51.873 23.934 C 52.016 23.895 52.15 23.841 52.276 23.772 C 56.118 21.668 55.253 9.709 55.141 8.352 M 51.516 22.319 C 51.41 22.376 51.171 22.373 50.935 22.326 L 49.56 22.046 L 50.016 23.403 C 50.793 25.694 51.191 28.098 51.193 30.518 C 51.193 44.416 41.561 46.333 31.151 46.333 C 20.741 46.333 11.11 44.417 11.11 30.518 C 11.11 28.131 11.5 25.754 12.271 23.453 L 12.754 22.008 L 11.31 22.387 C 10.994 22.471 10.725 22.477 10.614 22.416 C 8.464 21.206 8.375 13.794 8.838 8.95 C 9.916 8.884 10.994 8.851 12.074 8.851 C 16.615 8.851 19.827 9.456 21.119 10.553 L 21.582 10.947 L 22.081 10.603 C 23.311 9.754 24.622 9.031 25.996 8.445 C 29.534 11.492 31.144 17.115 31.144 17.115 C 31.908 12.221 34.745 9.726 36.631 8.576 C 37.833 9.114 38.985 9.758 40.074 10.5 L 40.564 10.832 L 41.022 10.456 C 42.206 9.481 44.992 8.945 48.866 8.945 C 50.855 8.945 52.659 9.085 53.587 9.171 C 53.901 13.925 53.612 21.169 51.516 22.319" fill="#000000" style=""/><path d="M 19.068 11.679 C 16.776 10.452 11.248 10.926 11.248 10.926 C 11.248 10.926 10.361 18.707 12.542 19.912 C 12.581 19.934 12.626 19.948 12.671 19.962 C 14.257 16.689 16.53 13.879 19.068 11.679" fill="#000000" style=""/><path d="M 43.055 11.904 C 45.559 14.134 47.794 16.956 49.33 20.235 C 49.388 20.22 49.442 20.201 49.494 20.175 C 51.625 19.026 50.988 11.389 50.988 11.389 C 50.988 11.389 45.448 10.74 43.055 11.904" fill="#000000" style=""/><path d="M 30.933 27.764 C 24.031 27.764 19.571 31.722 19.571 37.847 C 19.571 40.45 20.37 42.169 22.014 43.1 C 23.418 43.896 25.316 44.059 27.735 44.059 C 28.23 44.059 28.74 44.052 29.263 44.046 C 30.352 44.032 31.516 44.032 32.604 44.046 C 33.126 44.052 33.638 44.059 34.133 44.059 C 38.435 44.059 42.297 43.584 42.297 37.847 C 42.296 31.722 37.836 27.764 30.933 27.764 M 34.132 42.86 C 33.642 42.86 33.136 42.855 32.618 42.848 C 32.069 42.841 31.507 42.835 30.933 42.835 C 30.361 42.835 29.798 42.841 29.249 42.848 C 28.73 42.855 28.225 42.86 27.735 42.86 C 25.504 42.861 23.777 42.723 22.598 42.057 C 21.808 41.61 20.761 40.687 20.761 37.848 C 20.761 31.297 26.015 28.963 30.933 28.963 C 35.851 28.963 41.106 31.298 41.106 37.848 C 41.106 42.136 38.954 42.86 34.132 42.86" fill="#000000" style=""/><ellipse cx="26.13" cy="36.504" rx="2.638" ry="4.89" fill="#000000" style=""/><ellipse cx="35.737" cy="36.504" rx="2.636" ry="4.89" fill="#000000" style=""/><ellipse cx="18.38" cy="25.967" rx="2.368" ry="4.376" fill="#000000" style=""/><path d="M 43.485 21.478 C 42.179 21.478 41.119 23.436 41.119 25.853 C 41.119 28.269 42.179 30.228 43.485 30.228 C 44.795 30.228 45.854 28.269 45.854 25.853 C 45.855 23.436 44.796 21.478 43.485 21.478" fill="#000000" style=""/><text style="fill: rgb(51, 51, 51); font-family: Arial, sans-serif; font-size: 28px; white-space: pre;" transform="matrix(0.594969, 0, 0, 0.527054, 10.560455, 31.834546)"><tspan x="11.8" y="52.659" style="text-decoration: underline solid rgba(0, 0, 0, 0.8);">P</tspan><tspan>ig</tspan></text></svg>