<?xml version="1.0" encoding="utf-8"?>
<svg version="1.1" id="Layer_1" xmlns="http://www.w3.org/2000/svg" width="800px" height="800px" viewBox="0 0 64 64" enable-background="new 0 0 64 64" xmlns:bx="https://boxy-svg.com"><defs><bx:export><bx:file format="svg" href="#object-0"/><bx:file format="svg" path="television.svg"/></bx:export></defs><title>Television</title><desc>Created with Sketch.</desc><g id="Page-1" style="" transform="matrix(0.774022, 0, 0, 0.652701, 7.571357, 1.571528)"><g id="Television" transform="translate(1.000000, 1.000000)"><path id="Shape_6_" fill="none" stroke="#6B6C6E" stroke-width="2" d="M16.4,0l14,9.9"/><path id="Shape_7_" fill="none" stroke="#6B6C6E" stroke-width="2" d="M31.8,9.9l15.7-9.7"/><path id="Shape_5_" fill="none" stroke="#6B6C6E" stroke-width="2" d="M41,16.1h19c1.1,0,2,0.9,2,2v41 c0,1.1-0.9,2-2,2H2c-1.1,0-2-0.9-2-2v-41c0-1.1,0.9-2,2-2h19c0-3.3,4.5-6,10-6S41,12.8,41,16.1L41,16.1z"/><path id="Shape" fill="none" stroke="#6B6C6E" stroke-width="2" d="M46,54.1c0,1.1-0.9,2-2,2H7 c-1.1,0-2-0.9-2-2v-31c0-1.1,0.9-2,2-2h37c1.1,0,2,0.9,2,2V54.1L46,54.1z"/><circle id="Oval" fill="none" stroke="#6B6C6E" stroke-width="2" cx="54" cy="27" r="4"/><path id="Shape_1_" fill="none" stroke="#6B6C6E" stroke-width="2" d="M54,23.1v8"/><circle id="Oval_1_" fill="none" stroke="#6B6C6E" stroke-width="2" cx="54" cy="39" r="3"/><path id="Shape_2_" fill="none" stroke="#6B6C6E" stroke-width="2" d="M58,47h-8"/><path id="Shape_3_" fill="none" stroke="#6B6C6E" stroke-width="2" d="M58,51h-8"/><path id="Shape_4_" fill="none" stroke="#6B6C6E" stroke-width="2" d="M58,55h-8"/><path id="Shape_8_" fill="none" stroke="#6B6C6E" stroke-width="2" d="M7.8,32.5l9-9"/><path id="Shape_9_" fill="none" stroke="#6B6C6E" stroke-width="2" d="M9,38.3l13.8-13.8"/></g></g><text style="fill: rgb(51, 51, 51); font-family: Arial, sans-serif; font-size: 28px; white-space: pre;" transform="matrix(0.360526, 0, 0, 0.617391, 8.108137, 26.442295)" id="object-0"><tspan x="3.639" y="51.639">Televi</tspan><tspan style="text-decoration: underline solid rgba(0, 0, 0, 0.8);">sio</tspan><tspan>n</tspan></text></svg>