<?xml version="1.0" encoding="utf-8"?>
<svg width="800px" height="800px" viewBox="0 0 24 24" fill="none" xmlns="http://www.w3.org/2000/svg" xmlns:bx="https://boxy-svg.com"><defs><bx:export><bx:file format="svg" path="tooth.svg"/></bx:export></defs><path d="M 9.816 1.258 C 9.282 1.068 8.777 0.888 7.993 0.888 C 6.334 0.888 5.505 2.504 5.505 4.524 C 5.505 5.815 5.844 6.611 6.197 7.44 C 6.396 7.907 6.6 8.385 6.749 8.968 C 6.873 9.449 6.923 10.146 6.976 10.887 C 7.101 12.633 7.243 14.623 8.408 14.623 C 9.154 14.623 9.48 13.481 9.84 12.223 C 10.281 10.682 10.771 8.968 12.14 8.968 C 13.51 8.968 14 10.682 14.441 12.223 C 14.801 13.481 15.127 14.623 15.873 14.623 C 17.037 14.623 17.18 12.633 17.305 10.887 C 17.358 10.146 17.408 9.449 17.532 8.968 C 17.681 8.385 17.885 7.907 18.084 7.44 C 18.437 6.611 18.776 5.815 18.776 4.524 C 18.776 2.504 17.947 0.888 16.288 0.888 C 15.504 0.888 14.999 1.068 14.464 1.258 C 13.867 1.471 13.235 1.696 12.14 1.696 C 11.046 1.696 10.414 1.471 9.816 1.258 Z" stroke="#000000" stroke-width="1.5" stroke-linecap="round" stroke-linejoin="round" style=""/><text style="fill: rgb(51, 51, 51); font-family: Arial, sans-serif; font-size: 28px; white-space: pre;" transform="matrix(0.159219, 0, 0, 0.233363, 4.119811, 18.091801)"><tspan x="12.969" y="13.473">Too</tspan><tspan style="text-decoration: underline solid rgba(0, 0, 0, 0.8);">th</tspan></text></svg>