<?xml version="1.0" encoding="utf-8"?>
<svg fill="#000000" height="800px" width="800px" version="1.1" id="Capa_1" xmlns="http://www.w3.org/2000/svg" viewBox="0 0 431.347 431.347" xmlns:bx="https://boxy-svg.com"><defs><bx:export><bx:file format="svg" path="turtle.svg"/></bx:export></defs><path id="XMLID_47_" d="M 82.267 57.169 L 82.267 43.787 L 96.379 43.787 L 96.379 57.169 L 82.267 57.169 Z M 190.857 211.141 C 180.965 197.955 161.512 174.384 142.401 164.677 C 125.394 156.038 115.028 161.965 110.36 166.266 L 120.568 175.746 C 122.379 174.075 125.005 172.615 130.74 174.44 C 142.028 178.028 158.047 192.158 174.691 213.207 C 186.588 228.251 194.64 241.563 197.948 248.483 C 189.479 249.624 177.357 248.37 164.464 244.884 C 146.507 240.027 130.141 231.764 119.564 222.215 C 107.519 211.34 103.912 199.938 108.839 188.326 L 110.707 183.924 L 106.847 180.826 C 93.597 170.191 86.836 158.016 86.756 144.64 L 86.427 89.678 L 79.236 89.678 C 62.224 89.677 48.382 76.867 48.382 61.125 C 48.382 45.382 62.224 32.573 79.236 32.573 L 98.278 32.573 C 105.384 32.573 109.611 38.345 110.115 44.05 C 110.204 45.064 110.213 46.791 110.222 48.618 C 110.263 57.087 110.32 68.685 116.611 75.244 L 127.427 66.362 C 124.757 63.578 124.704 53.053 124.683 48.558 C 124.672 46.374 124.664 44.488 124.528 42.96 C 123.333 29.41 112.049 19.192 98.278 19.192 L 79.236 19.192 C 54.251 19.191 33.921 38.003 33.921 61.125 C 33.921 81.982 50.463 99.331 72.044 102.531 L 72.295 144.714 C 72.392 160.56 79.798 175.407 93.779 187.893 C 89.309 203.094 94.769 218.524 109.466 231.792 C 121.682 242.821 140.248 252.275 160.406 257.726 C 171.552 260.741 182.048 262.262 191.103 262.262 C 198.315 262.262 204.611 261.297 209.593 259.354 L 213.042 258.01 L 213.847 254.629 C 214.439 252.137 214.495 248.459 207.592 236.292 C 203.318 228.759 197.375 219.826 190.857 211.141 Z M 288.72 185.997 C 280.985 183.044 269.581 181.478 260.777 185.931 C 255.36 188.671 251.89 193.212 250.747 199.062 L 264.976 201.447 C 265.335 199.613 266.179 198.449 267.713 197.673 C 271.121 195.949 277.638 196.242 283.207 198.367 C 302.368 205.682 323.352 233.818 330.378 246.941 C 312.816 246.493 284.832 240.099 270.669 229.066 C 265.413 224.973 262.696 220.718 262.593 216.42 L 262.472 211.352 L 257.167 210.088 C 248.545 208.034 222.371 204.95 205.048 215.214 L 212.846 226.484 C 222.793 220.591 239.274 220.864 248.911 222.204 C 250.541 228.393 254.707 234.126 261.356 239.304 C 279.279 253.266 312.433 260.307 332.693 260.307 C 335.814 260.307 338.631 260.14 341.037 259.805 L 345.953 259.121 L 347.023 254.629 C 349.083 245.984 334.022 226.001 329.357 220.082 C 321.537 210.16 305.86 192.539 288.72 185.997 Z M 378.96 143.611 C 371.4 166.784 354.013 185.401 324.254 202.191 L 316.726 190.765 C 338.169 178.669 352.325 165.762 360.385 150.791 C 314.276 158.887 252.604 159.57 233.401 159.57 C 189.078 159.57 145.794 155.046 108.229 146.485 L 103.257 145.351 L 102.76 140.636 C 102.516 138.311 102.392 135.966 102.392 133.669 C 102.392 108.566 116.294 85.091 141.538 67.572 C 166.159 50.485 198.784 41.074 233.401 41.074 C 296.067 41.074 349.996 72.432 361.961 115.727 C 362.715 116.268 364.483 117.103 365.701 117.678 C 371.925 120.617 384.863 126.725 378.96 143.611 Z M 133.476 137.875 C 135.002 125.528 140.459 112.683 149.262 100.962 C 157.787 89.611 168.555 80.388 179.365 75.07 L 179.365 63.496 C 142.236 76.758 116.853 103.238 116.853 133.669 C 116.853 133.991 116.856 134.312 116.861 134.637 C 122.287 135.8 127.833 136.88 133.476 137.875 Z M 226.17 146.147 L 226.168 107.581 L 186.832 86.565 C 170.55 94.33 150.192 116.498 147.742 140.17 C 172.602 143.807 199.12 145.839 226.17 146.147 Z M 272.974 74.849 L 272.974 59.185 C 260.374 56.082 246.987 54.456 233.401 54.456 C 219.515 54.456 206.186 56.115 193.826 59.158 L 193.826 74.85 L 233.399 95.992 L 272.974 74.849 Z M 323.48 142.114 C 320.4 119.203 297.863 94.794 280.527 86.265 L 240.629 107.581 L 240.632 146.161 C 266.182 145.971 296.242 144.772 323.48 142.114 Z M 359.128 129.597 C 354.866 127.586 349.564 125.082 348.082 119.526 C 343.338 101.75 329.504 85.417 309.13 73.533 C 302.429 69.626 295.147 66.277 287.435 63.525 L 287.435 74.523 C 308.092 84.846 334.114 112.393 337.843 140.539 C 348.021 139.287 357.566 137.8 366.035 136.048 C 366.222 133.097 364.151 131.97 359.128 129.597 Z" style=""/><text style="fill: rgb(51, 51, 51); font-family: Arial, sans-serif; font-size: 28px; white-space: pre;" transform="matrix(2.793664, 0, 0, 2.82353, -150.183504, -620.548288)"><tspan x="91.908" y="346.659" style="text-decoration: underline solid rgba(0, 0, 0, 0.8);">T</tspan><tspan>urtle</tspan></text></svg>