<?xml version="1.0" encoding="utf-8"?>
<svg width="800px" height="800px" viewBox="0 0 24 24" id="Layer_1" data-name="Layer 1" xmlns="http://www.w3.org/2000/svg" xmlns:bx="https://boxy-svg.com"><defs><style>.cls-1{fill:none;stroke:#020202;stroke-miterlimit:10;stroke-width:1.91px;}</style><bx:export><bx:file format="svg" path="vehicle.svg"/></bx:export></defs><circle class="cls-1" cx="6.27" cy="15.84" r="1.91" style="" transform="matrix(0.91693, 0, 0, 1.015104, 1.124604, -5.10951)"/><circle class="cls-1" cx="17.73" cy="15.84" r="1.91" style="" transform="matrix(0.91693, 0, 0, 1.015104, 1.124604, -5.10951)"/><line class="cls-1" x1="15.63" y1="10.969" x2="8.625" y2="10.969" style=""/><path class="cls-1" d="M 5.122 10.969 L 2.5 10.969 L 2.5 8.087 C 2.495 7.013 3.282 6.142 4.251 6.148 L 5.168 6.148 L 6.15 3.854 C 6.59 2.884 7.48 2.267 8.46 2.25 L 15.154 2.25 C 15.994 2.235 16.79 2.67 17.29 3.417 L 19.124 6.128 L 19.995 6.128 C 20.975 6.116 21.771 7.001 21.756 8.087 L 21.756 10.991 L 19.134 10.991" style=""/><line class="cls-1" x1="5.122" y1="6.128" x2="19.134" y2="6.128" style=""/><line class="cls-1" x1="11.256" y1="2.25" x2="11.256" y2="6.128" style=""/><text style="fill: rgb(51, 51, 51); font-family: Arial, sans-serif; font-size: 28px; white-space: pre;" transform="matrix(0.17709, 0, 0, 0.200179, 3.544033, 15.803213)"><tspan x="1.705" y="18.059" style="text-decoration: underline solid rgba(0, 0, 0, 0.8);">V</tspan><tspan>ehicle</tspan></text></svg>