<?xml version="1.0" encoding="utf-8"?>
<svg fill="#000000" height="800px" width="800px" version="1.1" id="Layer_1" xmlns="http://www.w3.org/2000/svg" viewBox="0 0 512 512" xmlns:bx="https://boxy-svg.com"><defs><bx:export><bx:file format="svg" path="Whale.svg"/></bx:export></defs><g transform="matrix(0.912996, 0, 0, 0.815221, 12.969158, -26.000685)" style=""><g><g><circle cx="346.285" cy="257.013" r="12.641"/></g></g><g><g><path d="M430.4,93.419c-12.093,0-22.979,5.251-30.515,13.585c-7.536-8.337-18.43-13.585-30.53-13.585 c-22.687,0-41.154,18.456-41.154,41.154c0.001,5.869,4.764,10.631,10.632,10.631c5.879,0,10.631-4.763,10.631-10.631 c0-10.972,8.93-19.891,19.891-19.891c10.525,0,19.158,8.197,19.838,18.552h0.074l0.074,0.005 c-0.054,0.437-0.092,37.982-0.092,37.982c0,5.872,4.76,10.631,10.631,10.631c5.872,0,10.631-4.76,10.631-10.631V134.57 c0-0.012-0.002-0.023-0.002-0.035c0.021-10.955,8.941-19.853,19.889-19.853c10.972,0,19.891,8.92,19.891,19.891 c0,5.869,4.763,10.631,10.631,10.631c5.879,0,10.631-4.763,10.631-10.631C471.554,111.875,453.098,93.419,430.4,93.419z"/></g></g><g><g><path d="M503.758,212.235c-6.623-7.782-16.277-12.237-26.483-12.237H194.533c-32.128,0-59.77-22.857-65.723-54.348 c-0.123-0.65-0.287-1.282-0.452-1.914h16.899c30.182,0,54.73-24.548,54.73-54.73V74.378c0-5.868-4.763-10.631-10.631-10.631 h-31.937c-23.421,0-44.79,11.971-57.42,30.533C87.358,75.718,66,63.747,42.568,63.747H10.631C4.763,63.747,0,68.51,0,74.378 v14.629c0,30.183,24.548,54.73,54.73,54.73h18.642c-0.597,2.311-0.909,4.714-0.909,7.166v59.748 c0,45.949,17.18,89.771,48.362,123.398c27.65,29.816,64.08,49.274,103.794,55.706c-5.424,16.488-5.176,34.92,2.075,52.131 c1.095,2.598,3.178,4.657,5.79,5.72c1.285,0.522,4.66,1.172,8.137-0.051l96.684-40.763c7.442-3.126,13.375-8.851,16.813-15.971 h0.002c40.208-4.805,77.854-23.06,106.654-51.871c27.004-26.993,44.556-61.088,50.733-98.606c0.021-0.106,0.032-0.202,0.042-0.308 v-0.002l0.011,0.002C513.166,230.075,510.328,219.943,503.758,212.235z M54.73,122.474c-18.456,0-33.468-15.011-33.468-33.468 v-3.997h21.305c22.368,0,42.015,15.724,46.927,37.465H54.73z M157.419,85.009h21.305v3.997c0,18.456-15.012,33.468-33.468,33.468 h-34.765C115.393,100.733,135.05,85.009,157.419,85.009z M445.731,323.918c-23.283,23.304-53.136,38.783-85.264,44.482 c17.956-59.025,66.606-103.752,126.907-116.711C480.198,278.947,465.984,303.686,445.731,323.918z M335.888,378.744 c-0.029,0.124-0.048,0.25-0.067,0.374c-0.831,3.628-3.333,6.637-6.762,8.077l-85.915,36.222 c-4.868-24.272,7.832-49.499,31.508-59.486c5.41-2.281,7.946-8.518,5.664-13.928c-2.283-5.409-8.518-7.947-13.927-5.663 c-13.17,5.555-23.906,14.485-31.642,25.358c-37.645-4.477-72.372-22.118-98.325-50.107c-27.535-29.683-42.696-68.37-42.696-108.94 v-59.748c0-1.924,0.744-3.721,2.084-5.061c1.361-1.361,3.158-2.105,5.071-2.105c3.434,0,6.389,2.466,7.038,5.879 c7.857,41.516,44.28,71.645,86.614,71.645h282.742c3.966,0,7.718,1.733,10.302,4.763c0.929,1.091,1.654,2.287,2.178,3.551 C413.166,243.119,351.984,301.943,335.888,378.744z"/></g></g><g><g><path d="M211.73,312.552c-14.735-6.091-27.749-15.155-38.678-26.939c-7.037-7.587-12.955-16.092-17.59-25.28 c-2.644-5.241-9.038-7.347-14.28-4.704c-5.242,2.644-7.348,9.038-4.704,14.281c5.533,10.967,12.593,21.117,20.985,30.163 c13.029,14.048,28.555,24.858,46.144,32.129c1.329,0.55,2.704,0.81,4.057,0.81c4.175,0,8.135-2.475,9.83-6.573 C219.737,321.011,217.157,314.794,211.73,312.552z"/></g></g></g><text style="fill: rgb(51, 51, 51); font-family: Arial, sans-serif; font-size: 28px; white-space: pre;" transform="matrix(2.96115, 0, 0, 3.252773, -184.637713, -847.269117)"><tspan x="109.674" y="393.727" style="text-decoration: underline solid rgba(0, 0, 0, 0.8);">W</tspan><tspan>hale</tspan></text></svg>